<?xml version="1.0" standalone="no"?>
<!DOCTYPE svg PUBLIC "-//W3C//DTD SVG 20010904//EN"
 "http://www.w3.org/TR/2001/REC-SVG-20010904/DTD/svg10.dtd">
<svg version="1.0" xmlns="http://www.w3.org/2000/svg"
 width="1280.000000pt" height="537.000000pt" viewBox="0 0 1280.000000 537.000000"
 preserveAspectRatio="xMidYMid meet">
<metadata>
Created by potrace 1.15, written by Peter Selinger 2001-2017
</metadata>
<g transform="translate(0.000000,537.000000) scale(0.100000,-0.100000)"
fill="#000000" stroke="none">
<path d="M8313 5240 c-23 -3 -64 -16 -90 -27 -26 -11 -71 -31 -100 -43 -29
-13 -67 -38 -84 -56 -18 -19 -38 -34 -43 -34 -11 0 -52 -42 -160 -160 -26 -30
-55 -70 -65 -89 -9 -20 -33 -60 -53 -90 -21 -30 -38 -60 -38 -66 0 -6 -17 -45
-39 -86 -21 -41 -41 -90 -45 -110 -3 -20 -16 -55 -27 -79 -12 -24 -25 -68 -29
-98 -4 -30 -11 -57 -16 -60 -9 -7 -10 -9 -24 -112 -5 -36 -13 -90 -19 -120
-18 -99 -28 -243 -25 -365 2 -66 3 -147 3 -180 0 -34 5 -74 11 -90 6 -16 13
-61 16 -100 2 -38 12 -89 21 -113 9 -23 14 -45 11 -48 -7 -6 8 -78 26 -124 8
-19 19 -60 26 -90 7 -30 20 -71 30 -90 9 -19 22 -57 29 -85 7 -27 23 -67 37
-87 13 -21 24 -44 24 -52 0 -20 31 -84 64 -133 15 -23 25 -47 21 -52 -3 -6 -3
-11 2 -11 4 0 14 -15 22 -32 8 -18 24 -44 36 -58 12 -14 34 -50 49 -80 16 -30
43 -71 62 -90 18 -19 32 -37 31 -40 -3 -10 65 -101 89 -116 13 -9 24 -23 24
-32 0 -8 29 -43 65 -78 36 -35 65 -67 65 -72 0 -12 80 -86 109 -101 11 -7 21
-16 21 -21 0 -12 78 -90 91 -90 5 0 31 -21 57 -46 26 -26 65 -58 87 -72 22
-14 56 -41 75 -60 19 -18 54 -42 77 -52 22 -10 45 -24 50 -32 12 -19 62 -52
116 -76 26 -11 47 -25 47 -30 0 -10 116 -72 136 -72 7 0 17 -6 21 -14 4 -7 15
-15 23 -18 10 -3 4 -10 -20 -23 -19 -9 -42 -23 -50 -30 -8 -7 -34 -18 -58 -25
-23 -6 -67 -24 -96 -40 -30 -17 -64 -30 -76 -30 -12 0 -48 -13 -79 -29 -31
-16 -70 -32 -87 -35 -17 -2 -56 -16 -87 -30 -31 -15 -67 -26 -82 -26 -14 0
-45 -9 -68 -20 -23 -12 -72 -27 -109 -35 -36 -7 -80 -21 -97 -29 -19 -10 -56
-16 -105 -16 -46 0 -98 -7 -138 -20 -34 -11 -79 -20 -99 -20 -20 0 -58 -7 -85
-15 -27 -8 -65 -15 -85 -15 -20 0 -62 -9 -94 -20 -32 -11 -77 -20 -100 -20
-23 0 -61 -6 -86 -14 -24 -8 -73 -17 -109 -20 -36 -3 -103 -11 -150 -16 -81
-10 -256 -22 -310 -22 -90 1 -305 20 -357 31 -9 2 0 27 16 49 24 35 31 71 36
183 3 77 0 103 -20 158 -13 36 -26 82 -30 101 -4 19 -20 59 -37 89 -17 30 -36
72 -44 93 -7 22 -24 54 -36 71 -13 18 -35 56 -49 86 l-26 55 32 45 c17 25 38
62 45 81 7 19 18 40 25 45 16 15 65 116 65 136 0 10 6 24 13 31 19 20 57 113
57 142 0 13 7 32 16 40 8 9 13 16 10 16 -3 0 1 15 8 32 8 18 17 56 21 83 4 28
10 55 13 60 10 16 13 34 19 118 3 42 8 77 12 77 11 0 12 95 0 144 -9 38 -9 50
1 56 7 4 8 10 3 13 -5 3 -10 22 -11 42 -2 21 -14 60 -28 87 -14 28 -23 56 -20
63 3 8 2 15 -2 17 -4 2 -19 22 -35 45 -27 42 -131 120 -192 143 -33 13 -169
16 -236 5 -24 -4 -59 -16 -78 -27 -19 -11 -44 -21 -55 -22 -33 -4 -98 -36
-138 -68 -21 -16 -42 -27 -48 -23 -5 3 -10 2 -10 -2 0 -5 -15 -17 -32 -27 -34
-19 -151 -136 -144 -143 2 -3 -2 -20 -10 -38 -7 -18 -16 -85 -19 -148 -4 -90
-2 -121 10 -151 9 -21 15 -48 14 -60 -4 -33 11 -87 37 -135 13 -24 24 -49 24
-55 0 -18 40 -97 66 -132 13 -17 24 -36 24 -42 0 -15 38 -80 71 -121 16 -19
26 -38 23 -43 -3 -4 0 -13 6 -20 27 -33 81 -118 104 -164 14 -28 35 -61 45
-73 l20 -23 -44 -56 c-53 -69 -138 -163 -184 -206 -19 -17 -56 -53 -83 -81
l-50 -50 -16 24 c-9 14 -37 45 -62 70 -25 25 -57 63 -71 86 -15 22 -40 55 -56
72 l-29 33 -107 -66 c-59 -36 -107 -72 -107 -80 0 -17 34 -87 61 -126 11 -14
19 -32 19 -39 0 -19 48 -114 65 -129 8 -7 15 -16 15 -21 0 -12 -124 -69 -151
-69 -13 0 -51 -12 -84 -25 -33 -14 -73 -25 -90 -25 -16 0 -54 -9 -83 -20 -29
-11 -69 -20 -91 -20 -21 0 -60 -7 -87 -15 -27 -8 -67 -15 -89 -15 -22 0 -64
-7 -93 -14 -30 -8 -59 -13 -66 -10 -7 3 -75 -3 -151 -12 -173 -20 -275 -25
-525 -24 -357 1 -659 28 -749 66 -18 8 -54 17 -80 21 -25 3 -62 14 -83 24 -20
10 -56 22 -80 25 -23 4 -64 18 -89 31 -26 13 -64 27 -85 30 -22 3 -54 14 -72
25 l-32 20 42 31 c24 18 59 39 79 48 20 10 55 33 77 53 21 20 47 36 56 36 9 0
16 4 16 9 0 5 13 14 29 20 15 7 43 28 62 47 18 19 37 34 42 34 13 0 78 52 110
88 16 17 35 32 42 32 7 0 41 27 74 60 34 33 64 60 69 60 11 1 65 53 96 93 16
20 31 35 35 33 3 -2 26 19 51 46 25 27 69 73 99 101 29 29 62 69 72 89 11 21
24 38 30 38 13 0 55 47 76 85 9 17 36 52 60 79 25 28 52 64 60 80 9 17 33 51
54 76 21 25 45 64 54 88 10 24 24 42 33 42 8 0 13 3 9 6 -3 3 8 27 24 52 16
25 29 50 29 55 0 6 16 35 37 65 20 30 42 77 50 104 8 26 18 48 22 48 10 0 61
112 61 133 0 9 6 22 13 29 16 16 57 129 57 158 0 10 8 24 18 29 9 6 14 11 9
11 -4 0 -1 15 7 34 7 18 17 53 21 77 4 24 10 49 14 54 12 17 31 90 31 121 1
16 9 54 20 84 11 30 19 81 20 113 0 31 4 57 8 57 9 0 11 20 12 118 0 39 4 72
8 72 7 0 8 59 2 140 -1 19 -1 40 0 45 4 24 -2 118 -11 147 -5 18 -5 36 -1 40
8 8 -8 107 -23 146 -3 9 -9 39 -11 67 -3 27 -17 75 -30 106 -14 30 -24 60 -23
65 1 5 -3 22 -9 37 -7 16 -12 32 -12 36 0 4 -14 27 -30 49 -17 23 -30 47 -30
53 0 45 -164 231 -235 266 -27 14 -52 29 -55 32 -15 20 -105 51 -149 51 -28 0
-52 4 -55 8 -9 15 -108 13 -158 -4 -27 -9 -55 -13 -63 -10 -8 3 -17 1 -20 -3
-2 -5 -20 -12 -39 -15 -18 -4 -52 -20 -75 -36 -22 -17 -46 -30 -52 -30 -20 0
-82 -41 -126 -84 -24 -22 -43 -37 -43 -33 0 13 -70 -51 -120 -109 -14 -16 -39
-40 -55 -54 -17 -14 -40 -41 -53 -60 -12 -19 -38 -51 -58 -70 -20 -19 -45 -53
-56 -75 -12 -22 -36 -56 -54 -75 -19 -19 -43 -55 -55 -80 -11 -25 -26 -49 -32
-55 -19 -16 -64 -88 -72 -114 -4 -13 -23 -45 -41 -71 -19 -26 -41 -67 -49 -91
-9 -24 -19 -46 -24 -49 -13 -8 -61 -103 -61 -122 0 -9 -6 -23 -14 -30 -7 -8
-21 -29 -31 -48 -20 -40 -26 -33 -45 55 -7 33 -21 77 -32 98 -10 21 -16 42
-13 46 6 10 -16 67 -46 124 -12 21 -18 44 -15 52 3 8 1 17 -3 20 -5 2 -12 17
-16 32 -3 16 -17 45 -31 65 -13 21 -24 44 -24 53 0 20 -49 122 -66 136 -8 6
-14 18 -14 26 0 22 -40 95 -72 132 -16 18 -27 39 -24 47 3 8 2 14 -2 14 -5 0
-19 18 -31 40 -12 22 -36 50 -52 62 -16 12 -29 29 -29 37 0 23 -205 213 -248
231 -20 8 -59 30 -86 47 -28 19 -68 35 -95 38 -25 4 -57 11 -71 16 -31 11
-124 14 -197 6 -72 -8 -132 -27 -173 -54 -19 -13 -40 -23 -48 -23 -19 0 -93
-51 -125 -87 -16 -18 -33 -33 -38 -33 -17 0 -79 -63 -104 -107 -14 -23 -33
-43 -41 -43 -8 0 -13 -4 -10 -9 3 -4 -4 -17 -16 -27 -11 -11 -29 -38 -40 -61
-10 -22 -34 -64 -53 -93 -19 -28 -40 -70 -46 -93 -7 -23 -19 -48 -28 -54 -8
-7 -12 -13 -8 -13 4 0 -1 -17 -11 -37 -11 -21 -23 -56 -27 -78 -4 -22 -10 -44
-14 -50 -16 -21 -41 -110 -41 -147 0 -21 -4 -38 -9 -38 -10 0 -24 -71 -27
-135 -2 -22 -7 -62 -14 -90 -6 -27 -11 -70 -11 -95 -1 -25 -2 -112 -4 -195 -2
-82 1 -167 6 -188 7 -26 7 -43 0 -51 -6 -7 -9 -15 -6 -17 7 -7 27 -130 31
-194 2 -33 13 -82 25 -108 11 -26 18 -51 15 -56 -3 -4 1 -30 9 -57 8 -27 25
-89 39 -137 13 -48 31 -98 40 -112 8 -13 18 -37 21 -53 7 -40 32 -99 57 -133
11 -15 18 -35 15 -43 -4 -9 -2 -16 3 -16 6 0 10 -6 10 -14 0 -8 16 -38 36 -67
20 -30 37 -58 38 -64 5 -24 56 -112 75 -129 12 -11 21 -27 21 -38 0 -10 4 -18
9 -18 5 0 14 -13 21 -29 6 -16 25 -42 41 -57 17 -16 38 -45 47 -64 9 -19 38
-56 64 -81 26 -25 48 -51 48 -57 0 -6 30 -40 67 -76 37 -36 63 -66 59 -66 -9
0 89 -87 114 -100 11 -6 20 -15 20 -20 0 -14 69 -76 108 -97 17 -10 32 -21 32
-26 0 -13 52 -56 95 -79 22 -11 56 -36 75 -56 19 -19 54 -43 78 -54 24 -11 46
-26 49 -34 3 -8 9 -14 15 -14 5 0 24 -11 41 -24 18 -14 44 -28 60 -31 15 -4
33 -15 40 -24 17 -22 46 -39 147 -83 l34 -15 -44 -28 c-25 -16 -65 -34 -89
-42 -24 -7 -63 -24 -85 -37 -23 -13 -57 -27 -76 -31 -19 -4 -62 -20 -96 -36
-34 -16 -71 -29 -84 -29 -12 0 -43 -11 -69 -23 -26 -13 -64 -27 -86 -31 -22
-4 -66 -19 -97 -32 -32 -13 -69 -24 -83 -24 -13 0 -48 -9 -77 -20 -29 -11 -63
-20 -75 -20 -12 0 -56 -11 -97 -24 -41 -14 -103 -27 -137 -29 -34 -3 -64 -9
-68 -14 -3 -6 -37 -13 -75 -17 -80 -8 -193 -37 -227 -59 -17 -10 -46 -14 -99
-12 -41 1 -78 -2 -81 -7 -3 -5 -46 -23 -95 -39 -49 -17 -96 -37 -105 -45 -8
-8 -23 -14 -32 -14 -20 0 -28 -12 -18 -29 6 -9 17 -11 32 -6 21 7 22 6 10 -9
-7 -9 -22 -16 -33 -16 -14 0 -18 -5 -14 -16 3 -9 6 -18 6 -20 0 -11 24 -2 60
22 22 15 43 24 46 21 3 -3 19 -1 35 3 16 5 29 6 29 4 0 -11 -36 -42 -53 -45
-31 -6 -18 -24 14 -21 25 3 30 0 27 -15 -2 -11 -15 -20 -33 -23 -63 -11 0 -23
114 -22 130 1 206 21 264 71 27 23 42 28 93 29 33 1 76 8 95 15 19 8 60 17 93
21 32 3 68 12 80 18 11 6 39 13 62 14 22 2 67 12 100 22 32 11 66 20 74 20 27
1 101 22 132 38 16 9 36 13 44 10 7 -3 16 -1 19 4 4 6 16 10 28 10 12 0 45 11
74 24 28 13 53 23 55 21 6 -7 95 22 120 39 13 8 36 17 51 20 42 7 99 27 123
43 11 7 45 20 75 29 30 9 68 24 84 34 17 10 57 28 89 39 33 11 76 32 96 46 20
14 41 25 47 25 16 0 101 39 108 50 7 12 56 2 70 -14 12 -13 59 -32 129 -51 27
-8 52 -19 56 -25 4 -7 9 -11 11 -10 2 1 18 -4 34 -11 17 -6 50 -15 74 -20 25
-5 47 -13 50 -17 10 -14 95 -42 128 -42 17 0 39 -7 47 -16 9 -8 16 -13 16 -10
0 3 16 -2 35 -10 19 -7 52 -14 74 -14 22 0 46 -6 53 -12 15 -15 25 -17 126
-25 39 -3 72 -9 72 -12 0 -8 24 -10 112 -11 37 -1 70 -5 72 -9 3 -4 44 -8 92
-7 47 1 87 -2 89 -5 4 -6 444 -2 550 6 39 2 96 7 128 10 40 4 57 3 57 -6 0 -8
13 -10 48 -4 49 7 224 23 347 31 39 3 88 12 111 20 23 9 47 14 55 13 20 -4 77
9 135 32 28 11 55 19 60 18 5 -1 22 3 37 9 16 7 33 12 39 12 6 0 26 10 45 21
20 12 46 23 58 25 13 1 45 13 73 27 98 49 99 49 201 -51 75 -75 107 -98 188
-138 l98 -49 135 0 c101 0 145 4 175 16 38 15 64 15 75 -1 10 -13 104 -40 141
-40 21 0 40 -4 43 -9 8 -12 84 -25 134 -22 23 2 48 -2 55 -7 14 -12 112 -14
392 -9 39 1 97 0 130 -1 54 -3 136 6 220 23 17 3 84 12 150 20 66 8 147 20
180 27 33 6 83 12 110 13 28 1 79 9 115 18 36 9 89 21 118 28 30 6 74 23 99
37 25 14 56 26 68 28 46 5 91 16 124 31 18 8 43 16 55 18 45 5 92 18 126 35
19 9 59 23 89 30 30 7 69 22 87 32 18 11 39 18 46 17 16 -3 35 5 108 40 30 14
60 26 65 27 22 1 91 28 115 45 14 9 55 27 90 39 36 12 75 31 87 42 13 12 31
22 40 23 27 3 91 32 119 54 l25 20 62 -34 c34 -18 77 -36 96 -40 18 -4 48 -15
65 -26 17 -10 58 -25 90 -33 33 -9 63 -22 68 -28 4 -7 8 -10 8 -6 0 4 21 -2
46 -12 25 -11 58 -20 74 -20 16 0 36 -7 44 -16 9 -8 16 -13 16 -10 0 3 17 0
38 -8 20 -8 57 -17 81 -19 24 -3 47 -11 51 -17 4 -6 9 -11 11 -9 2 1 22 -1 44
-6 22 -4 56 -9 75 -10 19 -2 64 -8 100 -14 127 -21 259 -33 285 -27 14 4 31 3
38 -1 17 -11 463 -13 512 -3 22 5 43 6 48 1 4 -4 37 -3 75 2 37 4 100 10 140
12 41 3 90 9 109 14 19 5 40 8 47 5 7 -3 42 0 77 7 35 6 75 13 89 14 94 8 157
19 167 27 7 6 22 8 33 5 11 -3 23 -1 26 4 3 5 21 9 39 9 19 0 51 9 72 21 32
18 42 19 74 10 60 -18 150 -13 210 11 86 36 184 94 187 113 3 14 1 15 -18 5
-24 -13 -55 -6 -45 11 4 5 18 14 31 19 13 5 24 14 24 20 0 13 -16 13 -42 -1
-13 -7 -23 -7 -27 -2 -3 6 -13 13 -21 16 -10 3 -3 8 18 12 17 4 32 11 32 15 0
4 24 7 53 6 47 -1 52 1 53 21 1 26 0 27 -26 13 -10 -5 -27 -7 -37 -3 -16 6
-15 8 7 13 14 3 25 12 25 20 0 20 -48 21 -168 4 -54 -8 -102 -12 -106 -10 -5
3 -35 -8 -67 -25 -45 -23 -76 -31 -129 -34 -38 -2 -95 -11 -125 -20 -30 -9
-85 -20 -122 -25 -38 -5 -73 -12 -79 -16 -6 -4 -48 -11 -93 -16 -44 -5 -115
-13 -156 -18 -320 -39 -893 -44 -1098 -11 -33 5 -68 7 -79 5 -10 -3 -38 2 -62
11 -24 8 -62 15 -85 15 -22 0 -61 10 -86 21 -24 11 -65 23 -90 26 -25 3 -58
13 -75 23 -16 9 -56 23 -89 29 -32 7 -72 21 -90 31 -17 10 -54 23 -83 30 -73
17 -82 32 -40 64 18 14 56 37 83 52 27 14 63 39 79 55 17 16 36 29 43 29 13 0
33 15 97 73 23 20 47 37 54 37 13 0 42 22 95 73 22 21 44 39 49 40 6 1 18 9
27 17 9 8 49 44 89 80 86 76 108 97 138 131 11 13 38 37 58 54 21 16 49 46 63
67 13 21 30 38 36 38 6 1 29 24 51 52 22 28 62 74 88 102 26 28 57 67 67 86
11 19 36 51 56 70 20 19 45 54 56 77 10 23 24 46 31 50 18 11 59 71 79 115 9
21 22 38 28 38 5 0 10 5 10 12 0 6 11 26 25 44 14 18 25 39 25 47 0 8 17 39
37 68 20 30 45 76 56 104 10 27 22 52 25 55 15 11 51 88 57 123 4 20 13 41 19
45 13 8 38 70 56 140 6 23 14 42 19 42 4 0 8 6 9 13 0 6 7 30 16 52 8 22 15
49 16 60 0 11 11 47 25 80 13 33 25 78 25 101 0 22 4 44 9 50 12 13 31 97 31
138 0 19 5 47 11 63 6 15 11 61 11 101 0 39 4 72 9 72 5 0 8 41 6 95 -2 52 1
95 5 95 5 0 7 4 4 8 -2 4 -7 68 -11 142 -4 73 -11 145 -17 159 -6 14 -12 53
-14 85 -3 32 -13 80 -23 105 -10 25 -24 69 -30 96 -6 28 -25 72 -42 99 -16 27
-28 55 -25 62 3 8 2 14 -2 14 -5 0 -18 20 -30 45 -12 24 -33 51 -46 60 -14 9
-28 25 -31 36 -9 28 -80 96 -124 119 -22 11 -41 23 -43 27 -20 47 -281 100
-360 74 -18 -6 -53 -13 -77 -16 -41 -5 -82 -21 -151 -59 -14 -7 -47 -24 -73
-37 -26 -13 -62 -39 -79 -56 -18 -18 -37 -33 -44 -33 -18 0 -240 -221 -248
-247 -4 -13 -12 -23 -17 -23 -15 0 -66 -61 -89 -107 -12 -24 -28 -43 -36 -43
-8 0 -14 -5 -14 -10 0 -6 -13 -29 -30 -52 -16 -22 -30 -47 -30 -55 0 -7 -8
-21 -17 -31 -36 -36 -70 -88 -82 -124 -7 -21 -18 -41 -25 -45 -15 -9 -66 -102
-66 -120 0 -7 -8 -21 -17 -31 -20 -20 -73 -121 -73 -139 0 -6 -16 -35 -35 -64
-19 -30 -35 -61 -35 -71 0 -9 -5 -20 -11 -24 -6 -4 -10 1 -8 12 4 32 -12 97
-33 133 -11 19 -17 43 -15 53 3 10 1 18 -4 18 -5 0 -9 10 -9 23 0 13 -11 45
-24 73 -13 27 -29 72 -37 99 -7 28 -23 67 -36 88 -14 22 -22 45 -19 53 3 8 2
14 -3 14 -5 0 -12 12 -16 28 -3 15 -20 48 -37 74 -16 26 -27 52 -23 58 3 5 2
10 -3 10 -6 0 -13 11 -16 24 -3 14 -22 45 -41 70 -19 26 -35 50 -35 55 0 18
-50 98 -80 126 -16 16 -30 34 -30 40 0 21 -194 213 -238 235 -23 12 -46 27
-50 34 -12 19 -86 54 -137 66 -27 6 -53 16 -57 23 -7 12 -204 18 -275 7z m277
-255 c36 -15 76 -37 90 -50 14 -12 44 -34 68 -49 23 -14 42 -30 42 -35 0 -6
25 -34 55 -65 30 -30 55 -59 55 -64 0 -6 18 -33 41 -62 22 -28 48 -68 56 -88
8 -20 28 -55 44 -78 15 -22 31 -54 35 -70 4 -16 22 -53 41 -84 18 -30 33 -65
33 -78 0 -12 14 -46 30 -75 17 -30 30 -64 30 -76 0 -13 14 -53 30 -91 17 -38
30 -78 30 -89 0 -12 11 -48 25 -81 14 -33 25 -72 25 -88 0 -16 7 -47 16 -68 9
-22 20 -61 24 -89 7 -42 34 -151 112 -450 l10 -40 18 45 c51 131 94 229 144
331 30 63 59 130 64 149 5 19 21 52 36 74 14 21 31 57 37 80 6 22 17 48 24 56
20 23 51 82 58 112 4 14 17 39 30 55 13 15 34 53 46 83 13 30 34 66 47 80 12
14 32 46 43 71 12 26 39 69 61 95 22 27 40 54 40 61 0 6 23 38 50 69 28 31 50
61 50 66 0 8 90 113 140 163 73 74 140 135 148 135 6 0 32 17 59 39 27 21 60
42 74 46 13 4 45 18 70 31 56 28 179 35 249 14 92 -27 234 -173 259 -266 6
-22 20 -54 31 -72 12 -19 23 -53 27 -75 3 -23 11 -57 19 -76 8 -18 14 -50 14
-70 0 -20 6 -61 13 -91 10 -38 13 -110 11 -235 -4 -234 -18 -360 -55 -510 -6
-22 -17 -70 -24 -108 -8 -37 -21 -80 -28 -95 -8 -15 -20 -51 -27 -81 -7 -30
-21 -69 -31 -85 -9 -17 -23 -51 -29 -76 -7 -25 -22 -63 -35 -85 -13 -22 -28
-58 -35 -80 -7 -22 -22 -53 -34 -70 -12 -16 -33 -56 -45 -87 -13 -32 -30 -63
-39 -70 -8 -7 -28 -40 -43 -74 -15 -33 -35 -66 -43 -73 -9 -7 -30 -39 -48 -70
-17 -31 -46 -73 -64 -93 -18 -20 -40 -52 -49 -70 -10 -18 -31 -47 -49 -65 -38
-38 -52 -55 -57 -71 -5 -16 -230 -261 -277 -302 -9 -8 -44 -41 -77 -73 -78
-74 -181 -163 -239 -206 -25 -18 -46 -37 -46 -42 0 -5 -19 -18 -42 -30 -24
-12 -64 -41 -90 -65 -26 -24 -54 -44 -62 -44 -8 0 -40 -20 -70 -45 -31 -25
-60 -45 -65 -45 -5 0 -38 -19 -73 -43 -35 -23 -89 -55 -120 -71 l-58 -27 -28
20 c-16 11 -53 30 -83 41 -30 12 -63 30 -74 40 -11 11 -43 29 -70 41 -28 12
-66 34 -85 49 -19 15 -55 38 -80 50 -25 13 -65 40 -89 61 -24 22 -49 39 -56
39 -6 0 -38 22 -69 50 -31 27 -67 55 -79 61 -22 12 -50 37 -182 167 -39 37
-77 73 -86 78 -8 5 -23 20 -32 34 -9 13 -40 49 -68 80 -62 68 -159 190 -159
200 0 5 -17 30 -38 57 -21 26 -51 73 -66 103 -15 30 -36 64 -47 76 -11 12 -24
37 -30 56 -5 20 -21 52 -34 72 -14 21 -34 64 -45 96 -11 33 -29 74 -40 92 -11
18 -20 43 -20 55 0 12 -11 48 -25 79 -14 31 -25 66 -25 79 0 12 -9 48 -20 80
-11 32 -20 71 -20 88 0 16 -7 53 -15 82 -9 28 -18 76 -20 106 -19 228 -21 308
-12 434 5 77 9 154 8 170 0 17 6 48 14 70 8 22 17 64 20 93 2 29 11 65 19 80
8 15 17 50 21 77 4 28 15 64 23 80 21 39 42 96 42 114 0 8 10 28 23 45 13 17
31 51 41 76 10 25 28 56 40 70 13 14 33 43 46 65 20 33 64 84 135 155 17 17
109 80 130 89 113 48 229 51 335 6z m-7105 -197 c28 -8 72 -30 98 -49 60 -43
200 -177 216 -206 6 -12 29 -43 51 -68 22 -25 40 -52 40 -58 0 -7 16 -35 35
-64 19 -28 43 -73 53 -100 10 -26 31 -66 45 -87 15 -21 27 -48 27 -60 0 -12
13 -44 29 -73 16 -28 32 -69 36 -89 3 -21 17 -58 29 -83 13 -26 26 -65 29 -89
3 -23 14 -59 24 -80 11 -20 23 -59 26 -85 4 -27 16 -69 27 -94 11 -25 20 -58
20 -74 0 -16 11 -61 24 -101 13 -40 41 -146 62 -235 22 -90 42 -163 46 -163 4
0 10 10 14 23 3 12 30 72 59 132 82 172 96 205 121 278 13 37 32 80 42 95 11
15 27 50 36 77 9 28 26 62 36 77 11 15 29 51 41 80 11 29 31 67 43 83 12 17
28 46 36 65 7 19 33 65 57 101 23 37 43 71 43 76 0 5 20 36 45 69 24 32 45 64
45 71 0 7 20 35 45 63 24 28 52 64 61 82 9 17 37 53 62 80 107 112 214 218
222 218 4 0 30 17 57 38 93 73 298 140 350 114 10 -5 34 -12 54 -15 34 -5 111
-53 152 -94 35 -35 107 -133 107 -145 0 -7 12 -33 26 -58 24 -40 40 -87 73
-215 17 -65 42 -259 44 -340 1 -72 -16 -351 -23 -370 -5 -13 -12 -52 -16 -87
-3 -34 -12 -77 -20 -95 -7 -18 -16 -56 -19 -85 -4 -29 -13 -64 -20 -78 -7 -14
-18 -50 -24 -80 -7 -30 -20 -68 -30 -85 -9 -16 -23 -52 -30 -78 -6 -27 -25
-74 -41 -104 -17 -31 -30 -64 -30 -73 0 -9 -10 -33 -23 -51 -29 -43 -57 -99
-57 -114 0 -7 -14 -31 -31 -54 -17 -24 -39 -64 -50 -89 -11 -26 -31 -58 -44
-72 -13 -14 -33 -45 -46 -70 -13 -25 -42 -67 -66 -94 -24 -26 -43 -54 -43 -61
0 -7 -14 -26 -30 -42 -17 -15 -46 -50 -65 -78 -19 -27 -54 -70 -79 -94 -25
-24 -46 -48 -46 -52 0 -11 -300 -309 -310 -309 -5 0 -33 -25 -64 -55 -30 -30
-60 -55 -65 -55 -6 0 -38 -25 -71 -55 -33 -30 -64 -55 -70 -55 -5 0 -34 -20
-64 -44 -29 -25 -71 -53 -92 -64 -22 -11 -55 -34 -74 -51 -19 -17 -40 -31 -46
-31 -7 0 -36 -16 -65 -36 -30 -20 -85 -53 -124 -73 l-70 -37 -34 23 c-18 13
-49 27 -68 32 -19 6 -50 21 -68 36 -19 14 -56 35 -82 46 -26 11 -57 29 -68 39
-11 10 -45 31 -75 46 -30 15 -76 45 -101 66 -25 21 -50 38 -57 38 -6 0 -37 23
-68 50 -31 27 -61 50 -66 50 -12 0 -247 208 -297 264 -14 16 -52 55 -83 87
-32 33 -58 63 -58 69 0 6 -25 37 -55 70 -30 33 -55 64 -55 70 0 5 -20 33 -44
63 -24 30 -47 64 -51 76 -3 12 -22 42 -42 67 -19 26 -41 64 -48 85 -8 22 -28
59 -45 83 -16 25 -30 51 -30 58 0 8 -16 46 -35 85 -19 39 -35 78 -35 87 0 8
-11 40 -24 70 -13 29 -27 73 -31 97 -4 24 -16 64 -26 88 -10 24 -19 58 -19 75
0 17 -5 47 -11 66 -46 148 -58 672 -18 797 6 18 10 51 11 75 0 24 6 58 14 76
7 18 18 60 24 94 6 33 18 70 25 82 8 12 21 48 29 80 9 33 23 67 31 76 8 9 23
39 32 66 9 27 27 62 40 78 13 16 33 47 45 70 40 78 225 257 282 272 15 3 44
15 64 25 45 23 177 21 257 -3z m4867 -2057 c21 -20 38 -46 38 -57 0 -12 6 -37
14 -56 15 -35 25 -225 13 -244 -3 -6 -8 -41 -12 -78 -3 -38 -10 -77 -16 -87
-5 -10 -14 -44 -20 -76 -6 -31 -17 -66 -24 -77 -7 -12 -21 -48 -31 -81 -9 -33
-24 -71 -34 -85 -9 -14 -25 -47 -35 -75 -10 -27 -29 -63 -42 -78 -13 -16 -23
-33 -23 -39 0 -19 -28 12 -34 38 -4 15 -25 50 -46 78 -22 29 -40 58 -40 64 0
6 -20 40 -44 76 -24 36 -49 79 -54 96 -6 16 -24 49 -40 72 -66 99 -104 272
-92 423 3 33 10 45 43 70 23 17 66 43 96 60 31 16 62 35 69 42 7 7 25 16 40
19 15 3 49 13 76 23 33 12 67 16 104 13 46 -4 61 -10 94 -41z m-122 -1592 c0
-6 15 -41 32 -78 18 -36 33 -73 34 -81 1 -8 8 -35 15 -60 12 -45 15 -137 5
-175 -3 -11 -22 -31 -43 -44 l-37 -24 -36 22 c-19 12 -62 34 -95 50 -33 15
-66 36 -74 45 -8 9 -35 29 -60 43 -25 15 -62 42 -81 62 l-36 36 52 52 c29 29
55 53 58 53 9 0 77 77 99 111 11 16 23 29 28 29 5 0 23 16 40 35 l31 35 34
-50 c19 -27 34 -55 34 -61z"/>
<path d="M12330 740 c0 -5 5 -10 11 -10 5 0 7 5 4 10 -3 6 -8 10 -11 10 -2 0
-4 -4 -4 -10z"/>
</g>
</svg>
